Coordinates
version=1
nRows=8
nColumns=36
inDegrees=yes

Units are S.I. units (second, meters, Newtons, ...)
If the header above contains a line with 'inDegrees', this indicates whether rotational values are in degrees (yes) or radians (no).

endheader
time	pelvis_tilt	pelvis_list	pelvis_rotation	pelvis_tx	pelvis_ty	pelvis_tz	hip_flexion_r	hip_adduction_r	hip_rotation_r	knee_angle_r	knee_angle_r_beta	ankle_angle_r	subtalar_angle_r	mtp_angle_r	hip_flexion_l	hip_adduction_l	hip_rotation_l	knee_angle_l	knee_angle_l_beta	ankle_angle_l	subtalar_angle_l	mtp_angle_l	lumbar_extension	lumbar_bending	lumbar_rotation	arm_flex_r	arm_add_r	arm_rot_r	elbow_flex_r	pro_sup_r	arm_flex_l	arm_add_l	arm_rot_l	elbow_flex_l	pro_sup_l
      0.00000000	     15.26726075	      0.14343086	      1.71750377	     -0.56372125	      0.57620607	     -0.61190063	     75.28033749	     -9.21345603	      2.32954027	    101.84186610	      1.77747588	     19.08734341	      3.71754871	     -4.39962062	     79.05382479	     -5.11195565	      4.98309238	     99.63363490	      1.73893497	     -0.20564009	     -7.82337814	     -4.39962062	    -24.04831122	      0.85264229	      0.24118500	     -0.78210740	     -3.58743338	    -12.46467219	    115.61949570	     99.50700874	      0.55243730	     -1.69455200	     -7.19661039	    110.76617365	    100.60666420
      0.01000000	     15.29594213	      0.13540587	      1.67495848	     -0.56373039	      0.57630737	     -0.61189820	     75.26463045	     -9.17526254	      2.34020028	    101.84307052	      1.77749690	     19.03193073	      3.67688910	     -4.91719533	     79.00971703	     -5.16144848	      4.97719082	     99.64404320	      1.73911663	     -0.15079262	     -7.91448628	     -4.91719533	    -24.05367180	      0.80021143	      0.35823078	     -0.77402129	     -3.66245165	    -12.60119684	    115.58032011	     99.50639085	      0.60023805	     -1.67157345	     -7.15750227	    110.67908440	    100.95994754
      0.02000000	     15.33149381	      0.15150785	      1.65239019	     -0.56378892	      0.57640547	     -0.61191016	     75.23777688	     -9.16294037	      2.36041963	    101.83563417	      1.77736711	     18.98911199	      3.66835316	     -5.17479377	     78.95618719	     -5.17277321	      4.94993529	     99.63706987	      1.73899493	     -0.14485321	     -7.96866909	     -5.17479377	    -24.09834703	      0.75976501	      0.43723480	     -0.79927362	     -3.68396424	    -12.67220047	    115.61857169	     99.22929104	      0.64671685	     -1.67965101	     -7.08186559	    110.64034768	    100.95983590
      0.03000000	     15.35866322	      0.15988233	      1.65730687	     -0.56381690	      0.57642981	     -0.61185356	     75.22582364	     -9.16650537	      2.37116023	    101.85608697	      1.77772408	     19.01218478	      3.72898091	     -5.54298753	     78.93271999	     -5.16740608	      4.96102055	     99.62993430	      1.73887039	     -0.21376528	     -7.91987819	     -5.54298753	    -24.15136535	      0.75295067	      0.49190978	     -0.89715426	     -3.64331452	    -12.62039885	    115.61627987	     99.38100713	      0.70750661	     -1.68309994	     -7.14236147	    110.70792699	    101.01082670
      0.04000000	     15.40236584	      0.17853916	      1.64090731	     -0.56394466	      0.57657477	     -0.61195378	     75.17654942	     -9.17195889	      2.40407281	    101.83407093	      1.77733983	     19.01675399	      3.80541678	     -5.61843327	     78.86892229	     -5.14607533	      4.95925695	     99.60788244	      1.73848551	     -0.22336041	     -7.74527461	     -5.61843327	    -24.25294080	      0.78815235	      0.49469575	     -0.76575891	     -3.67796552	    -12.66548747	    115.72570026	     99.01398482	      0.71451675	     -1.67144557	     -7.06713212	    110.62852026	    100.92283589
      0.05000000	     15.38902144	      0.15466373	      1.63258648	     -0.56401615	      0.57655233	     -0.61192729	     75.19321243	     -9.14132326	      2.35612916	    101.81440727	      1.77699663	     18.83064798	      3.39668739	     -5.78767682	     78.88925450	     -5.16100995	      4.99807267	     99.60805826	      1.73848858	     -0.04186969	     -7.51072426	     -5.78767682	    -24.30588841	      0.82085118	      0.50783238	     -0.74934715	     -3.72954861	    -12.52446104	    115.96586717	     97.34139174	      0.70109336	     -1.68272908	     -6.96336963	    110.92506496	     99.11289610
      0.06000000	     15.49945832	      0.21061096	      1.62129051	     -0.56419632	      0.57678816	     -0.61202737	     75.06786073	     -9.19449048	      2.43841236	    101.81178357	      1.77695084	     19.22824914	      4.12845095	     -5.86313181	     78.74195401	     -5.11462507	      4.91644150	     99.57710131	      1.73794828	     -0.43862609	     -8.07206957	     -5.86313181	    -24.50183069	      0.77643915	      0.55111855	     -0.71565954	     -3.74092126	    -12.64309457	    115.92964593	     97.79534255	      0.81242185	     -1.69747786	     -7.00042316	    110.85307432	     99.51017454
      0.07000000	     15.50829576	      0.20285755	      1.60561787	     -0.56429717	      0.57682121	     -0.61202257	     75.07523638	     -9.16221851	      2.41190322	    101.79730945	      1.77669822	     18.90773986	      3.70520291	     -6.07376047	     78.72340063	     -5.13361668	      4.93838427	     99.55814302	      1.73761739	     -0.30257244	     -7.89121763	     -6.07376047	    -24.53558948	      0.77797783	      0.57961128	     -0.65186721	     -3.74598404	    -12.73287923	    115.76406822	     99.52783091	      0.89051714	     -1.73209522	     -7.03883585	    110.64792325	    101.21463746
